<?xml version="1.0" encoding="UTF-8" standalone="no"?>
<!-- Created with Inkscape (http://www.inkscape.org/) -->

<svg
 xmlns:dc="http://purl.org/dc/elements/1.1/"
 xmlns:cc="http://creativecommons.org/ns#"
 xmlns:rdf="http://www.w3.org/1999/02/22-rdf-syntax-ns#"
 xmlns:svg="http://www.w3.org/2000/svg"
 xmlns="http://www.w3.org/2000/svg"
 xmlns:sodipodi="http://sodipodi.sourceforge.net/DTD/sodipodi-0.dtd"
 xmlns:inkscape="http://www.inkscape.org/namespaces/inkscape"
 width="128"
 height="128"
 id="svg3085"
 version="1.1"
 inkscape:version="0.48.1 r9760"
 sodipodi:docname="New document 5">
<defs
 id="defs3087" />
<sodipodi:namedview
 id="base"
 pagecolor="#ffffff"
 bordercolor="#666666"
 borderopacity="1.0"
 inkscape:pageopacity="0.0"
 inkscape:pageshadow="2"
 inkscape:zoom="3.78437"
 inkscape:cx="96.1874"
 inkscape:cy="51.7162"
 inkscape:document-units="px"
 inkscape:current-layer="layer1"
 showgrid="false"
 inkscape:window-width="1440"
 inkscape:window-height="849"
 inkscape:window-x="0"
 inkscape:window-y="24"
 inkscape:window-maximized="1" />
<metadata
 id="metadata3090">
<rdf:RDF>
<cc:Work
 rdf:about="">
<dc:format>image/svg+xml</dc:format>
<dc:type
 rdf:resource="http://purl.org/dc/dcmitype/StillImage" />
<dc:title></dc:title>
</cc:Work>
</rdf:RDF>
</metadata>
<g
 inkscape:label="Layer 1"
 inkscape:groupmode="layer"
 id="layer1"
 transform="translate(0,-924.362)">
<path
 style="fill:#cccccc;fill-opacity:1;fill-rule:nonzero;stroke:none"
 d="M 17.952,976.847 12.3405,972.009 7.1159,975.299 6.34188,981.104 13.6949,986.135 9.0509,988.843 6.72882,996.971 9.43784,999.679 16.7911,998.131 19.1131,993.1 34.2062,991.166 77.1638,993.487 103.867,995.423 105.415,998.906 107.35,1004.33 115.091,1005.1 117.799,999.679 117.412,993.487 110.06,990.391 108.898,984.973 116.063,983.076 122.444,979.556 122.444,973.363 114.317,968.333 106.576,970.494 104.641,973.75 98.0617,978.781 43.8814,980.329 26.0792,981.491 z"
 id="path3093"
 inkscape:connector-curvature="0"
 sodipodi:nodetypes="cccccccccccccccccccccccccccccc" />
</g>
</svg>
