<?xml version="1.0" encoding="UTF-8" standalone="no"?>
<!-- Created with Inkscape (http://www.inkscape.org/) -->

<svg
 xmlns:dc="http://purl.org/dc/elements/1.1/"
 xmlns:cc="http://creativecommons.org/ns#"
 xmlns:rdf="http://www.w3.org/1999/02/22-rdf-syntax-ns#"
 xmlns:svg="http://www.w3.org/2000/svg"
 xmlns="http://www.w3.org/2000/svg"
 xmlns:sodipodi="http://sodipodi.sourceforge.net/DTD/sodipodi-0.dtd"
 xmlns:inkscape="http://www.inkscape.org/namespaces/inkscape"
 width="512"
 height="512"
 id="svg2998"
 version="1.1"
 inkscape:version="0.48.1 r9760"
 sodipodi:docname="human.svg"
 inkscape:export-filename="/tmp/human/images/foot.png"
 inkscape:export-xdpi="90"
 inkscape:export-ydpi="90">
<defs
 id="defs3000" />
<sodipodi:namedview
 id="base"
 pagecolor="#ffffff"
 bordercolor="#666666"
 borderopacity="1.0"
 inkscape:pageopacity="0.0"
 inkscape:pageshadow="2"
 inkscape:zoom="0.33225"
 inkscape:cx="339.769"
 inkscape:cy="224.528"
 inkscape:document-units="px"
 inkscape:current-layer="layer1"
 showgrid="false"
 inkscape:window-width="1440"
 inkscape:window-height="849"
 inkscape:window-x="0"
 inkscape:window-y="24"
 inkscape:window-maximized="1" />
<metadata
 id="metadata3003">
<rdf:RDF>
<cc:Work
 rdf:about="">
<dc:format>image/svg+xml</dc:format>
<dc:type
 rdf:resource="http://purl.org/dc/dcmitype/StillImage" />
<dc:title></dc:title>
</cc:Work>
</rdf:RDF>
</metadata>
<g
 inkscape:label="Layer 1"
 inkscape:groupmode="layer"
 id="layer1"
 transform="translate(0,-540.362)">
<path
 style="fill:#ffcc00;fill-opacity:1;fill-rule:nonzero;stroke:none"
 d="M 694.931,1011.54 698.916,1221.59 C 698.916,1221.59 712.441,1274.35 758.736,1270.85 793.571,1268.25 794.738,1221.52 794.738,1221.52 L 780.407,1003.22 735.714,976.004 z"
 id="path3008"
 inkscape:connector-curvature="0"
 sodipodi:nodetypes="ccscccc"
 inkscape:transform-center-x="-5.20712"
 inkscape:transform-center-y="120.93" />
<path
 inkscape:transform-center-x="-9.15807"
 inkscape:transform-center-y="123.004"
 sodipodi:nodetypes="ccccsc"
 inkscape:connector-curvature="0"
 id="path3847"
 d="M 698.504,1226.42 700.928,1509.7 802.783,1505.04 792.266,1225.29 C 792.266,1225.29 781.066,1225.54 747.742,1226.77 713.681,1228.04 698.504,1226.42 698.504,1226.42 z"
 style="fill:#000000;fill-opacity:1;fill-rule:nonzero;stroke:none" />
<path
 style="fill:#ffcc00;fill-opacity:1;fill-rule:nonzero;stroke:none"
 d="M 702.719,1225.37 703.939,1514.97 796.459,1509.26 788.977,1225.29 C 788.977,1225.29 768.692,1221.33 739.036,1222.56 708.722,1223.82 702.719,1225.37 702.719,1225.37 z"
 id="path3012"
 inkscape:connector-curvature="0"
 sodipodi:nodetypes="ccccsc"
 inkscape:transform-center-y="123.006"
 inkscape:transform-center-x="-8.15009" />
<g
 id="g3816"
 transform="matrix(1.98053,0,0,1.98053,249.317,-686.692)">
<path
 style="fill:#000000;fill-opacity:1;fill-rule:nonzero;stroke:none"
 d="M 233.123,1135.51 231.054,1106.55 279.029,1104.03 330.335,1135.51 z"
 id="path3814"
 inkscape:connector-curvature="0"
 sodipodi:nodetypes="ccccc" />
<path
 sodipodi:nodetypes="cccccc"
 inkscape:connector-curvature="0"
 id="path3014"
 d="M 235.183,1133.62 234.442,1106.7 254.805,1108.57 275.169,1105.17 323.045,1133.62 z"
 style="fill:#d4aa00;fill-opacity:1;fill-rule:nonzero;stroke:none" />
</g>
<path
 style="fill:#ffcc00;fill-opacity:1;fill-rule:nonzero;stroke:none"
 d="M 681.881,898.404 670.775,920.624 655.964,976.164 691.499,1039.82 735.566,1050.97 776.656,1047.22 785.55,898.404 z"
 id="path3016"
 inkscape:connector-curvature="0"
 sodipodi:nodetypes="cccccccc" />
<g
 id="g3840"
 inkscape:transform-center-x="19.7502"
 inkscape:transform-center-y="-102.873"
 transform="matrix(1.95702,-0.304253,0.304253,1.95702,60.4816,-599.721)">
<g
 transform="translate(-2.44738e-5,9.3318e-6)"
 inkscape:transform-center-y="-48.8297"
 inkscape:transform-center-x="-4.51468"
 id="g3834">
<g
 id="g3828"
 transform="translate(1.50489,-8.27691)">
<path
 inkscape:transform-center-y="-42.6555"
 style="fill:#000000;fill-opacity:1;fill-rule:nonzero;stroke:none"
 d="M 206.818,538.226 208.95,615.006 262.27,617.139 272.934,531.828 z"
 id="path3826"
 inkscape:connector-curvature="0" />
<path
 inkscape:transform-center-y="-37.3905"
 inkscape:transform-center-x="-1.938"
 inkscape:connector-curvature="0"
 id="path3032"
 d="M 212.838,547.968 214.707,615.267 261.443,617.137 270.79,542.36 z"
 style="fill:#ffffff;fill-opacity:1;fill-rule:nonzero;stroke:none" />
</g>
<path
 sodipodi:nodetypes="ccccc"
 style="fill:#ffffff;fill-opacity:1;fill-rule:nonzero;stroke:none"
 d="M 217.457,64.2947 261.099,67.3044 249.06,82.3533 229.496,83.8583 z"
 id="path3832"
 inkscape:connector-curvature="0"
 transform="translate(0,540.362)" />
</g>
</g>
<path
 style="fill:#002255;fill-opacity:1;fill-rule:nonzero;stroke:none"
 d="M 687.074,898.404 638.943,594.809 672.266,535.571 757.421,535.571 805.554,591.107 783.338,902.114"
 id="path3018"
 inkscape:connector-curvature="0"
 sodipodi:nodetypes="cccccc" />
<path
 style="fill:#2c89a0;fill-opacity:1;fill-rule:nonzero;stroke:none"
 d="M 684.094,622.845 704.729,786.309 738.307,808.437 768.724,781.038 754.44,615.44 715.54,590.828 z"
 id="path3022"
 inkscape:connector-curvature="0"
 sodipodi:nodetypes="ccccccc" />
<path
 style="fill:#2c89a0;fill-opacity:1;fill-rule:nonzero;stroke:none"
 d="M 709.91,782.476 732.922,956.124 762.978,965.634 787.283,946.784 761.738,781.603 z"
 id="path3026"
 inkscape:connector-curvature="0"
 sodipodi:nodetypes="cccccc"
 inkscape:transform-center-x="-13.4085"
 inkscape:transform-center-y="85.4372" />
<g
 id="g3822"
 transform="matrix(1.81601,-0.790333,0.790333,1.81601,-372.521,-350.81)"
 inkscape:transform-center-y="36.9635"
 inkscape:transform-center-x="-18.2352">
<path
 style="fill:#000000;fill-opacity:1;fill-rule:nonzero;stroke:none"
 d="M 246.1,831.669 275.877,825.714 275.877,873.358 254.04,877.329 z"
 id="path3820"
 inkscape:connector-curvature="0" />
<path
 sodipodi:nodetypes="cccccc"
 inkscape:connector-curvature="0"
 id="path3028"
 d="M 246.632,831.056 260.918,828.651 275.205,826.246 274.939,872.974 254.907,876.447 z"
 style="fill:#ffffff;fill-opacity:1;fill-rule:nonzero;stroke:none" />
</g>
<g
 transform="matrix(1.95702,-0.304253,0.304253,1.95702,-912.123,-406.051)"
 inkscape:transform-center-y="-102.873"
 inkscape:transform-center-x="19.7502"
 id="g3868">
<g
 id="g3870"
 inkscape:transform-center-x="-4.51468"
 inkscape:transform-center-y="-48.8297"
 transform="translate(-2.44738e-5,9.3318e-6)">
<g
 transform="translate(1.50489,-8.27691)"
 id="g3872">
<path
 inkscape:connector-curvature="0"
 id="path3874"
 d="M 206.818,538.226 208.95,615.006 262.27,617.139 272.934,531.828 z"
 style="fill:#000000;fill-opacity:1;fill-rule:nonzero;stroke:none"
 inkscape:transform-center-y="-42.6555" />
<path
 style="fill:#ffffff;fill-opacity:1;fill-rule:nonzero;stroke:none"
 d="M 212.838,547.968 214.707,615.267 261.443,617.137 270.79,542.36 z"
 id="path3876"
 inkscape:connector-curvature="0"
 inkscape:transform-center-x="-1.938"
 inkscape:transform-center-y="-37.3905" />
</g>
<path
 transform="translate(0,540.362)"
 inkscape:connector-curvature="0"
 id="path3878"
 d="M 217.457,64.2947 261.099,67.3044 249.06,82.3533 229.496,83.8583 z"
 style="fill:#ffffff;fill-opacity:1;fill-rule:nonzero;stroke:none"
 sodipodi:nodetypes="ccccc" />
</g>
</g>
<path
 sodipodi:nodetypes="cccccc"
 inkscape:connector-curvature="0"
 id="path3880"
 d="M -298.3,1134.64 -346.431,831.043 -313.108,771.805 -227.953,771.805 -179.82,827.341 -202.036,1138.35"
 style="fill:#002255;fill-opacity:1;fill-rule:nonzero;stroke:none" />
<path
 sodipodi:nodetypes="cccccccc"
 inkscape:connector-curvature="0"
 id="path3882"
 d="M -305.622,1132.51 -316.728,1154.73 -331.539,1210.27 -296.004,1273.93 -251.937,1285.08 -210.847,1281.33 -201.953,1132.51 z"
 style="fill:#ffcc00;fill-opacity:1;fill-rule:nonzero;stroke:none" />
<path
 style="fill:#000000;fill-opacity:1;fill-rule:nonzero;stroke:none"
 d="M -298.187,1280.72 -289.687,1492.27 -186.341,1495.21 -200.672,1269.39 -252.889,1275.28 z"
 id="path3886"
 inkscape:connector-curvature="0"
 sodipodi:nodetypes="cccccc"
 inkscape:transform-center-x="-5.20712"
 inkscape:transform-center-y="120.93" />
<path
 inkscape:transform-center-y="120.93"
 inkscape:transform-center-x="-5.20712"
 sodipodi:nodetypes="ccscccc"
 inkscape:connector-curvature="0"
 id="path3884"
 d="M -290.297,1278.33 -286.312,1488.38 C -286.312,1488.38 -272.787,1541.14 -226.492,1537.64 -191.657,1535.04 -190.49,1488.31 -190.49,1488.31 L -204.821,1270.01 -249.514,1242.79 z"
 style="fill:#ffcc00;fill-opacity:1;fill-rule:nonzero;stroke:none" />
<path
 style="fill:#000000;fill-opacity:1;fill-rule:nonzero;stroke:none"
 d="M -288.705,1485.26 -286.281,1768.54 -184.426,1763.88 -194.943,1484.13 C -194.943,1484.13 -206.143,1484.38 -239.467,1485.61 -273.528,1486.88 -288.705,1485.26 -288.705,1485.26 z"
 id="path3888"
 inkscape:connector-curvature="0"
 sodipodi:nodetypes="ccccsc"
 inkscape:transform-center-y="123.004"
 inkscape:transform-center-x="-9.15807" />
<path
 inkscape:transform-center-x="-8.15009"
 inkscape:transform-center-y="123.006"
 sodipodi:nodetypes="ccccsc"
 inkscape:connector-curvature="0"
 id="path3890"
 d="M -284.49,1484.21 -283.27,1773.81 -190.75,1768.1 -198.232,1484.13 C -198.232,1484.13 -218.517,1480.17 -248.173,1481.4 -278.487,1482.66 -284.49,1484.21 -284.49,1484.21 z"
 style="fill:#ffcc00;fill-opacity:1;fill-rule:nonzero;stroke:none" />
<g
 transform="matrix(1.98053,0,0,1.98053,-277.395,-1412.05)"
 id="g3892">
<path
 sodipodi:nodetypes="ccccc"
 inkscape:connector-curvature="0"
 id="path3894"
 d="M 233.123,1135.51 231.054,1106.55 279.029,1104.03 330.335,1135.51 z"
 style="fill:#000000;fill-opacity:1;fill-rule:nonzero;stroke:none" />
<path
 style="fill:#d4aa00;fill-opacity:1;fill-rule:nonzero;stroke:none"
 d="M 235.183,1133.62 234.442,1106.7 254.805,1108.57 275.169,1105.17 323.045,1133.62 z"
 id="path3896"
 inkscape:connector-curvature="0"
 sodipodi:nodetypes="cccccc" />
</g>
</g>
</svg>
