<?xml version="1.0" encoding="UTF-8" standalone="no"?>
<!-- Created with Inkscape (http://www.inkscape.org/) -->

<svg
 xmlns:dc="http://purl.org/dc/elements/1.1/"
 xmlns:cc="http://creativecommons.org/ns#"
 xmlns:rdf="http://www.w3.org/1999/02/22-rdf-syntax-ns#"
 xmlns:svg="http://www.w3.org/2000/svg"
 xmlns="http://www.w3.org/2000/svg"
 xmlns:sodipodi="http://sodipodi.sourceforge.net/DTD/sodipodi-0.dtd"
 xmlns:inkscape="http://www.inkscape.org/namespaces/inkscape"
 width="128"
 height="128"
 id="svg3085"
 version="1.1"
 inkscape:version="0.48.1 r9760"
 sodipodi:docname="vampire-bones2.svg"
 inkscape:export-filename="/tmp/vampirebones2/body-bottom.png"
 inkscape:export-xdpi="90"
 inkscape:export-ydpi="90">
<defs
 id="defs3087" />
<sodipodi:namedview
 id="base"
 pagecolor="#20326a"
 bordercolor="#666666"
 borderopacity="1.0"
 inkscape:pageopacity="0"
 inkscape:pageshadow="2"
 inkscape:zoom="1.78191"
 inkscape:cx="200.58"
 inkscape:cy="74.6215"
 inkscape:document-units="px"
 inkscape:current-layer="layer1"
 showgrid="false"
 inkscape:window-width="1440"
 inkscape:window-height="849"
 inkscape:window-x="0"
 inkscape:window-y="24"
 inkscape:window-maximized="1" />
<metadata
 id="metadata3090">
<rdf:RDF>
<cc:Work
 rdf:about="">
<dc:format>image/svg+xml</dc:format>
<dc:type
 rdf:resource="http://purl.org/dc/dcmitype/StillImage" />
<dc:title></dc:title>
</cc:Work>
</rdf:RDF>
</metadata>
<g
 inkscape:label="Layer 1"
 inkscape:groupmode="layer"
 id="layer1"
 transform="translate(0,-924.362)">
<path
 style="fill:#000000;fill-opacity:1;fill-rule:nonzero;stroke:none"
 d="M -87.2114,1115.89 -85.7994,1120.44 -81.7554,1125.3 -77.6154,1128.03 -72.2564,1126.82 -70.4374,1123.78 -67.7094,1120.04 -66.9044,1114.39 -63.5664,1106.31 -60.9424,1100.64 -60.3344,1090.44 -62.8614,1082.97 -67.2084,1076.7 -69.6304,1074.56 -77.4124,1072.76 -85.5974,1073.98 -89.6404,1077.21 -92.7714,1081.03 -95.0944,1090.75 -94.2864,1095.58 -91.3574,1106.42 -88.7294,1113.06 z"
 id="path3035"
 inkscape:connector-curvature="0"
 inkscape:export-filename="/home/acoppes/workspace/animation-editor/assets/bones/vampire/torso_top.png"
 inkscape:export-xdpi="180"
 inkscape:export-ydpi="180" />
<path
 style="fill:#660000;fill-opacity:1;fill-rule:nonzero;stroke:none"
 d="M 229.452,966.372 234.235,966.772 237.88,970.042 242.001,982.892 242.99,990.642 242.003,1000.76 238.377,1009.29 230.627,1012.62 223.317,1009.4 221.916,999.482 220.868,993.132 221.306,982.772 222.536,974.412 224.304,970.782 227.411,967.042 z"
 id="path3021"
 inkscape:connector-curvature="0"
 inkscape:export-filename="/tmp/vampire/images/leg-bottom.png"
 inkscape:export-xdpi="180"
 inkscape:export-ydpi="180" />
<path
 style="fill:#000000;fill-opacity:1;fill-rule:nonzero;stroke:none"
 d="M 177.679,1037.48 C 177.679,1037.48 185.893,1034.84 189.716,1032.88 192.588,1031.4 195.34,1029.65 197.811,1027.55 198.394,1027.05 198.965,1026.52 199.387,1025.86 200.092,1024.84 200.978,1022.48 200.978,1022.48 200.978,1022.48 203.095,1030.67 203.073,1034.85 203.069,1038.31 201.291,1044.99 201.291,1044.99 201.291,1044.99 210.164,1050.1 214.207,1053.2 217.158,1055.46 222.415,1060.73 222.415,1060.73 222.415,1060.73 224.163,1062.93 223.783,1064.06 222.92,1066.59 219.365,1067.22 216.805,1068.01 210.566,1070 197.266,1069.7 197.266,1069.7 L 182.01,1068.34 177.248,1065.53 176.753,1062.77 178.069,1049.6 z"
 id="path3017"
 inkscape:connector-curvature="0"
 sodipodi:nodetypes="caaacacacaacccccc"
 inkscape:export-filename="/home/acoppes/workspace/animation-editor/assets/bones/vampire/foot.png"
 inkscape:export-xdpi="180"
 inkscape:export-ydpi="180" />
<path
 style="fill:#660000;fill-opacity:1;fill-rule:nonzero;stroke:none"
 d="M 185.157,969.222 185.157,969.222 189.036,971.422 190.9,973.562 192.735,980.102 194.436,990.222 194.564,1002.28 193.754,1004.5 190.953,1008.04 185.408,1009.01 181.556,1006.62 180.936,1002.74 181.761,984.342 182.36,972.742 182.812,969.472 184.689,968.952 z"
 id="path3023"
 inkscape:connector-curvature="0"
 inkscape:export-filename="/home/acoppes/workspace/animation-editor/assets/bones/vampire/leg_top.png"
 inkscape:export-xdpi="180"
 inkscape:export-ydpi="180" />
<path
 style="fill:#660000;fill-opacity:1;fill-rule:nonzero;stroke:none"
 d="M 56.4507,975.886 55.8227,984.046 55.3697,987.186 54.4097,990.296 54.0597,993.526 54.2417,994.756 57.4257,998.136 60.5097,1001.19 63.9167,1003.09 66.0297,1003.72 67.5557,1003.14 69.7127,1000.93 72.9077,996.646 73.5617,993.626 73.9177,990.196 74.0437,988.476 74.6467,982.346 74.8857,979.896 75.4077,978.816 69.2357,979.206 66.3967,979.776 64.5907,979.046 59.9667,977.256 z"
 id="path3025"
 inkscape:connector-curvature="0"
 inkscape:export-filename="/home/acoppes/workspace/animation-editor/assets/bones/vampire/torso_bottom.png"
 inkscape:export-xdpi="180"
 inkscape:export-ydpi="180" />
<path
 style="fill:#b3b3b3;fill-opacity:1;fill-rule:nonzero;stroke:none"
 d="M 316.84,862.651 C 317.17,861.354 317.361,859.995 317.939,858.784 318.548,857.523 319.154,856.059 320.37,855.373 321.514,854.726 323.044,854.69 324.304,855.061 325.797,855.496 327.214,856.556 328.023,857.889 329.337,860.034 328.899,862.847 329.352,865.331 330.047,869.136 330.269,873.027 331.499,876.658 332.321,879.098 334.249,881.076 334.935,883.54 335.448,885.365 335.625,887.321 335.403,889.192 335.204,890.863 333.823,893.986 333.823,893.986 L 335.201,896.161 336.19,898.976 335.393,902.847 335.327,907.508 333.72,907.815 334.168,905.903 332.309,904.54 332.151,902.541 328.685,908.609 326.2,910.058 325.113,910.938 323.399,911.071 321.957,910.103 321.324,909.312 321.24,906.278 317.416,903.463 313.735,898.603 312.864,896.315 312.686,893.699 308.567,891.193 C 308.567,891.193 311.508,890.225 312.759,889.345 314.031,888.442 315.173,887.321 316.001,886.025 316.623,885.033 317.061,883.89 317.219,882.747 317.396,881.473 317.062,880.175 316.908,878.923 316.634,876.722 316.026,874.591 315.809,872.391 315.66,870.919 315.54,869.423 315.678,867.948 315.848,866.146 316.398,864.409 316.84,862.651 z"
 id="path3013"
 inkscape:connector-curvature="0"
 sodipodi:nodetypes="aaaaaaaaacccccccccccccccccccccaaaaaaa"
 inkscape:transform-center-x="11.2706"
 inkscape:transform-center-y="47.0229"
 inkscape:export-filename="/home/acoppes/workspace/animation-editor/assets/bones/vampire/arm-bottom.png"
 inkscape:export-xdpi="180"
 inkscape:export-ydpi="180" />
<path
 style="fill:#b3b3b3;fill-opacity:1;fill-rule:nonzero;stroke:none"
 d="M 155.506,884.951 155.506,884.951 C 155.506,884.951 157.242,888.937 158.935,890.123 159.765,890.711 160.887,890.972 161.893,890.839 163.075,890.699 164.126,889.92 165.056,889.174 166.761,887.795 168.125,885.988 169.296,884.135 170.988,881.442 172.71,878.576 173.216,875.443 173.336,874.665 172.892,873.888 172.969,873.098 173.143,871.325 174.018,869.69 174.557,867.986 174.945,866.768 175.328,865.545 175.737,864.328 176.04,863.438 176.773,862.601 176.676,861.662 176.503,859.928 175.343,858.255 173.972,857.173 173.022,856.418 171.721,856.146 170.509,856.057 169.471,855.986 168.338,856.069 167.433,856.583 162.733,859.296 159.468,864.246 157.025,869.099 156.096,870.934 155.9,873.069 155.548,875.109 155.161,877.369 154.728,879.656 154.855,881.935 154.912,882.963 155.506,884.951 155.506,884.951 z"
 id="path3015"
 inkscape:connector-curvature="0"
 sodipodi:nodetypes="aaaaaaaaaaaaaaaaaa"
 inkscape:transform-center-x="6.26724"
 inkscape:transform-center-y="12.1575"
 inkscape:export-filename="/home/acoppes/workspace/animation-editor/assets/bones/vampire/arm-top.png"
 inkscape:export-xdpi="180"
 inkscape:export-ydpi="180" />
<path
 style="fill:#b3b3b3;fill-opacity:1;fill-rule:nonzero;stroke:none"
 d="M -78.6264,1029.38 -76.4041,1037.66 -68.1187,1038.68 -65.6926,1036.05 -64.2793,1027.96 -44.6749,1027.16 -22.8459,1021.3 -24.0599,1013 -29.9189,1005.33 -30.5259,994.206 -26.6859,982.079 -24.0599,973.189 -24.8669,965.709 -28.5049,957.83 -37.8009,939.438 -54.7792,930.749 -77.4157,927.312 -98.2302,926.907 -110.155,935.191 -115.813,948.936 -115.004,968.543 -111.773,978.645 -136.227,960.456 -143.302,960.052 -142.289,965.102 -140.269,975.814 -120.667,998.046 -111.166,1000.48 -107.729,1000.69 -114.198,1012 -115.207,1017.25 -109.551,1023.32 -94.7928,1027.36 -80.2439,1028.37 z"
 id="path3037"
 inkscape:connector-curvature="0"
 inkscape:export-filename="/home/acoppes/workspace/animation-editor/assets/bones/vampire/head.png"
 inkscape:export-xdpi="180"
 inkscape:export-ydpi="180" />
</g>
</svg>
