<?xml version="1.0" encoding="UTF-8" standalone="no"?>
<!-- Created with Inkscape (http://www.inkscape.org/) -->

<svg
 xmlns:dc="http://purl.org/dc/elements/1.1/"
 xmlns:cc="http://creativecommons.org/ns#"
 xmlns:rdf="http://www.w3.org/1999/02/22-rdf-syntax-ns#"
 xmlns:svg="http://www.w3.org/2000/svg"
 xmlns="http://www.w3.org/2000/svg"
 xmlns:sodipodi="http://sodipodi.sourceforge.net/DTD/sodipodi-0.dtd"
 xmlns:inkscape="http://www.inkscape.org/namespaces/inkscape"
 width="128"
 height="128"
 id="svg3085"
 version="1.1"
 inkscape:version="0.48.1 r9760"
 sodipodi:docname="bones2.svg">
<defs
 id="defs3087" />
<sodipodi:namedview
 id="base"
 pagecolor="#20326a"
 bordercolor="#666666"
 borderopacity="1.0"
 inkscape:pageopacity="1"
 inkscape:pageshadow="2"
 inkscape:zoom="0.639352"
 inkscape:cx="226.951"
 inkscape:cy="27.2072"
 inkscape:document-units="px"
 inkscape:current-layer="layer1"
 showgrid="false"
 inkscape:window-width="449"
 inkscape:window-height="413"
 inkscape:window-x="179"
 inkscape:window-y="185"
 inkscape:window-maximized="0" />
<metadata
 id="metadata3090">
<rdf:RDF>
<cc:Work
 rdf:about="">
<dc:format>image/svg+xml</dc:format>
<dc:type
 rdf:resource="http://purl.org/dc/dcmitype/StillImage" />
<dc:title />
</cc:Work>
</rdf:RDF>
</metadata>
<g
 inkscape:label="Layer 1"
 inkscape:groupmode="layer"
 id="layer1"
 transform="translate(0,-924.362)">
<path
 inkscape:transform-center-y="21.659"
 inkscape:transform-center-x="-4.35088"
 sodipodi:nodetypes="aaaaaaaaacccccccccccccccccccccaaaaaaa"
 inkscape:connector-curvature="0"
 id="path3031"
 d="M 67.3663,998.033 C 67.3479,997.423 67.2619,996.803 67.3645,996.203 67.4737,995.583 67.558,994.866 68.0042,994.412 68.4238,993.986 69.0873,993.78 69.6848,993.784 70.3924,993.789 71.1438,994.077 71.6634,994.559 72.5069,995.335 72.6638,996.623 73.1714,997.643 73.9474,999.223 74.5311,1000.9 75.5247,1002.35 76.1846,1003.31 77.2747,1003.93 77.8829,1004.93 78.3324,1005.66 78.6538,1006.49 78.7901,1007.34 78.9116,1008.1 78.697,1009.63 78.697,1009.63 L 79.5711,1010.41 80.3522,1011.52 80.4846,1013.31 81.0351,1015.35 80.3751,1015.71 80.3312,1014.81 79.3478,1014.44 79.0276,1013.57 78.2663,1016.66 77.3646,1017.63 76.9941,1018.12 76.2625,1018.41 75.5117,1018.16 75.1366,1017.89 74.7216,1016.57 72.6986,1015.83 70.4865,1014.15 69.8178,1013.27 69.4132,1012.13 67.3004,1011.55 C 67.3004,1011.55 68.4658,1010.75 68.9048,1010.22 69.3515,1009.67 69.7087,1009.04 69.9082,1008.36 70.0582,1007.86 70.1091,1007.31 70.0344,1006.79 69.9545,1006.2 69.6478,1005.68 69.4207,1005.14 69.0285,1004.21 68.4944,1003.36 68.1257,1002.42 67.8786,1001.79 67.6401,1001.15 67.5161,1000.49 67.3674,999.683 67.3907,998.853 67.3663,998.033 z"
 style="fill:#b3b3b3;fill-opacity:1;fill-rule:nonzero;stroke:none" />
<path
 sodipodi:nodetypes="aaaaaaaaaaaaaaaaaa"
 inkscape:connector-curvature="0"
 id="path3033"
 d="M 67.1121,996.663 67.1121,996.663 C 67.1121,996.663 68.3668,998.183 69.2552,998.493 69.6903,998.643 70.2132,998.623 70.6388,998.443 71.1383,998.233 71.5001,997.763 71.8139,997.323 72.3889,996.503 72.7609,995.544 73.0416,994.587 73.447,993.196 73.8437,991.729 73.674,990.298 73.6309,989.941 73.3374,989.656 73.2741,989.303 73.13,988.506 73.3095,987.68 73.3328,986.868 73.3502,986.285 73.3662,985.703 73.3937,985.12 73.4155,984.694 73.6313,984.235 73.4731,983.835 73.1806,983.102 72.4656,982.516 71.7318,982.212 71.2217,982.001 70.6182,982.042 70.0783,982.158 69.6141,982.254 69.1273,982.428 68.7967,982.767 67.079,984.538 66.2677,987.111 65.8019,989.532 65.625,990.455 65.8057,991.418 65.9047,992.348 66.0157,993.385 66.1117,994.44 66.4508,995.421 66.605,995.863 67.1121,996.663 67.1121,996.663 z"
 style="fill:#b3b3b3;fill-opacity:1;fill-rule:nonzero;stroke:none"
 inkscape:transform-center-x="0.0959458"
 inkscape:transform-center-y="5.89076" />
<path
 style="fill:#000000;fill-opacity:1;fill-rule:nonzero;stroke:none"
 d="M 60.7135,995.219 61.3566,997.283 63.1948,999.493 65.0789,1000.73 67.5146,1000.18 68.3417,998.803 69.5825,997.103 69.9499,994.531 71.4665,990.853 72.6614,988.281 72.937,983.639 71.7881,980.24 69.8124,977.389 68.7092,976.424 65.1708,975.598 61.4486,976.149 59.6104,977.617 58.1859,979.364 57.1292,983.776 57.4966,985.983 58.8293,990.899 60.0241,993.93 z"
 id="path3035"
 inkscape:connector-curvature="0" />
<path
 style="fill:#660000;fill-opacity:1;fill-rule:nonzero;stroke:none"
 d="M 64.8841,1016.91 66.8336,1017.89 67.8092,1019.9 67.3539,1026.01 66.4448,1029.45 64.2991,1033.55 61.3108,1036.53 57.4763,1036.61 54.942,1034.01 56.0473,1029.59 56.6971,1026.72 58.6469,1022.44 60.5962,1019.12 61.9607,1017.89 63.9102,1016.84 z"
 id="path3021"
 inkscape:connector-curvature="0" />
<path
 style="fill:#000000;fill-opacity:1;fill-rule:nonzero;stroke:none"
 d="M 55.6418,1028.34 C 55.6418,1028.34 59.5384,1028.81 61.4906,1028.73 62.9568,1028.67 64.4284,1028.47 65.8446,1028.08 66.1826,1027.98 66.52,1027.87 66.8197,1027.68 67.3067,1027.39 68.1194,1026.59 68.1194,1026.59 68.1194,1026.59 67.43,1030.38 66.6246,1032.1 65.9677,1033.52 63.9601,1035.94 63.9601,1035.94 63.9601,1035.94 66.651,1039.74 67.7294,1041.79 68.5152,1043.29 69.6793,1046.47 69.6793,1046.47 69.6793,1046.47 69.9876,1047.7 69.6141,1048.1 68.7742,1048.98 67.1824,1048.57 65.9748,1048.41 63.0257,1048.03 57.5915,1045.37 57.5915,1045.37 L 51.5472,1041.91 50.1176,1039.84 50.4423,1038.6 53.4973,1033.41 z"
 id="path3017"
 inkscape:connector-curvature="0"
 sodipodi:nodetypes="caaacacacaacccccc" />
<path
 style="fill:#660000;fill-opacity:1;fill-rule:nonzero;stroke:none"
 d="M 61.246,1003.13 61.246,1003.13 63.1307,1003.88 64.1046,1004.73 65.3396,1007.56 66.7372,1012.01 67.5484,1017.43 67.3223,1018.48 66.2819,1020.25 63.8454,1021.04 61.9607,1020.2 61.4403,1018.5 60.6609,1010.15 60.2056,1004.89 60.2056,1003.39 61.0183,1003.04 z"
 id="path3023"
 inkscape:connector-curvature="0" />
<path
 style="fill:#660000;fill-opacity:1;fill-rule:nonzero;stroke:none"
 d="M 60.967,996.483 60.7371,1000.2 60.5533,1001.63 60.1396,1003.05 60.0015,1004.52 60.0938,1005.08 61.5643,1006.59 62.9888,1007.96 64.5513,1008.8 65.5161,1009.07 66.2056,1008.8 67.1705,1007.78 68.595,1005.81 68.8708,1004.43 69.0088,1002.87 69.0547,1002.09 69.2844,999.293 69.3764,998.183 69.606,997.683 66.8029,997.903 65.5161,998.183 64.6892,997.863 62.5753,997.083 z"
 id="path3025"
 inkscape:connector-curvature="0" />
<path
 style="fill:#b3b3b3;fill-opacity:1;fill-rule:nonzero;stroke:none"
 d="M 51.7875,993.738 C 51.9365,993.146 52.0237,992.528 52.287,991.977 52.563,991.404 52.8396,990.738 53.3927,990.426 53.9128,990.132 54.6071,990.115 55.181,990.284 55.8602,990.482 56.5041,990.964 56.8724,991.57 57.4709,992.546 57.2705,993.826 57.4774,994.954 57.7937,996.683 57.8933,998.453 58.4537,1000.11 58.8261,1001.22 59.7031,1002.12 60.0163,1003.24 60.248,1004.07 60.3298,1004.96 60.2282,1005.81 60.1383,1006.57 59.5104,1007.99 59.5104,1007.99 L 60.1365,1008.98 60.5866,1010.26 60.2242,1012.02 60.1941,1014.14 59.4633,1014.28 59.6673,1013.41 58.8211,1012.79 58.7497,1011.88 57.1732,1014.64 56.0437,1015.3 55.5491,1015.7 54.7691,1015.76 54.1137,1015.32 53.8261,1014.96 53.7872,1013.58 52.0485,1012.3 50.3758,1010.09 49.9783,1009.05 49.897,1007.86 48.0248,1006.72 C 48.0248,1006.72 49.3622,1006.28 49.931,1005.88 50.5098,1005.47 51.0285,1004.96 51.4055,1004.37 51.6885,1003.92 51.8879,1003.4 51.959,1002.88 52.0407,1002.3 51.8889,1001.71 51.8173,1001.14 51.6935,1000.14 51.416,999.163 51.3175,998.163 51.2513,997.493 51.1963,996.813 51.2587,996.143 51.3361,995.325 51.5861,994.536 51.7875,993.738 z"
 id="path3013"
 inkscape:connector-curvature="0"
 sodipodi:nodetypes="aaaaaaaaacccccccccccccccccccccaaaaaaa"
 inkscape:transform-center-x="5.12561"
 inkscape:transform-center-y="21.3838" />
<path
 style="fill:#660000;fill-opacity:1;fill-rule:nonzero;stroke:none"
 d="M 69.7165,1004.95 66.9441,1004.03 65.8111,1004.29 64.6154,1005.19 64.8144,1006.46 67.3995,1009.29 69.0259,1011.07 70.2829,1012.39 73.9868,1014.65 75.8897,1015.02 78.1736,1014.32 78.9459,1013.51 77.9705,1011.2 75.5878,1009.12 71.3097,1005.65 z"
 id="path3027"
 inkscape:connector-curvature="0"
 inkscape:transform-center-x="-4.67169"
 inkscape:transform-center-y="4.48577" />
<path
 style="fill:#b3b3b3;fill-opacity:1;fill-rule:nonzero;stroke:none"
 d="M 51.9196,992.344 51.9196,992.344 C 51.9196,992.344 52.7085,994.156 53.4785,994.696 53.8555,994.963 54.365,995.082 54.8236,995.022 55.3617,994.958 55.8386,994.604 56.2615,994.264 57.0379,993.637 57.6579,992.816 58.1904,991.973 58.9595,990.748 59.7429,989.445 59.9728,988.02 60.0277,987.666 59.8241,987.313 59.8591,986.954 59.9396,986.147 60.3375,985.404 60.5825,984.629 60.7586,984.075 60.9332,983.52 61.119,982.965 61.2568,982.561 61.5901,982.18 61.5465,981.753 61.4671,980.965 60.9396,980.204 60.3169,979.712 59.8841,979.369 59.2921,979.245 58.7417,979.204 58.2694,979.172 57.753,979.209 57.342,979.443 55.2058,980.677 53.7207,982.928 52.6093,985.135 52.1869,985.969 52.098,986.941 51.9379,987.868 51.7614,988.895 51.5651,989.936 51.6224,990.973 51.6495,991.44 51.9196,992.344 51.9196,992.344 z"
 id="path3015"
 inkscape:connector-curvature="0"
 sodipodi:nodetypes="aaaaaaaaaaaaaaaaaa"
 inkscape:transform-center-x="2.84997"
 inkscape:transform-center-y="5.52874" />
<path
 inkscape:connector-curvature="0"
 id="path3029"
 d="M 75.4054,1011.87 77.5784,1012.03 79.2472,1013.53 81.152,1019.34 81.6212,1022.88 81.1942,1027.48 79.5683,1031.38 76.047,1032.9 72.7145,1031.46 72.0543,1026.96 71.5684,1024.06 71.7386,1019.36 72.2807,1015.54 73.0728,1013.88 74.4802,1012.18 z"
 style="fill:#660000;fill-opacity:1;fill-rule:nonzero;stroke:none"
 inkscape:transform-center-x="-9.4861"
 inkscape:transform-center-y="17.3466" />
<path
 sodipodi:nodetypes="caaacacacaacccccc"
 inkscape:connector-curvature="0"
 id="path3019"
 d="M 71.2483,1025.18 C 71.2483,1025.18 75.1716,1025.2 77.1018,1024.9 78.5521,1024.66 79.989,1024.29 81.3511,1023.74 81.6771,1023.61 81.9973,1023.46 82.2748,1023.24 82.7243,1022.88 83.437,1021.99 83.437,1021.99 83.437,1021.99 83.1929,1025.84 82.5925,1027.65 82.105,1029.13 80.3925,1031.77 80.3925,1031.77 80.3925,1031.77 83.5053,1035.23 84.8151,1037.14 85.7682,1038.54 87.2954,1041.56 87.2954,1041.56 87.2954,1041.56 87.7434,1042.75 87.4183,1043.18 86.6863,1044.17 85.0592,1043.95 83.8405,1043.93 80.8672,1043.88 75.161,1041.87 75.161,1041.87 L 68.7572,1039.15 67.096,1037.25 67.2763,1035.99 69.7046,1030.47 z"
 style="fill:#000000;fill-opacity:1;fill-rule:nonzero;stroke:none"
 inkscape:transform-center-y="27.941"
 inkscape:transform-center-x="-10.2075" />
<path
 style="fill:#b3b3b3;fill-opacity:1;fill-rule:nonzero;stroke:none"
 d="M 61.9082,974.907 62.9194,978.677 66.6875,979.136 67.7903,977.942 68.4336,974.264 77.3486,973.897 87.2747,971.231 86.7235,967.463 84.058,963.971 83.7822,958.915 85.5284,953.401 86.7235,949.358 86.3557,945.957 84.7015,942.374 80.4738,934.009 72.7535,930.058 62.4596,928.495 52.9932,928.311 47.5708,932.078 44.9975,938.329 45.3653,947.245 46.8357,951.839 35.7147,943.568 32.4979,943.384 32.9574,945.68 33.8765,950.552 42.7914,960.662 47.1114,961.766 48.6739,961.858 45.7326,967.003 45.2731,969.393 47.8464,972.151 54.5558,973.988 61.173,974.448 z"
 id="path3037"
 inkscape:connector-curvature="0" />
<path
 style="fill:#b3b3b3;fill-opacity:1;fill-rule:nonzero;stroke:none"
 d="M 151.781,998.112 C 151.572,997.539 151.294,996.977 151.203,996.376 151.111,995.753 150.964,995.046 151.244,994.474 151.508,993.938 152.072,993.533 152.641,993.348 153.313,993.13 154.118,993.166 154.762,993.459 155.808,993.929 156.364,995.102 157.167,995.91 158.401,997.164 159.485,998.572 160.886,999.634 161.815,1000.34 163.045,1000.58 163.937,1001.34 164.594,1001.89 165.161,1002.58 165.558,1003.34 165.914,1004.02 166.193,1005.54 166.193,1005.54 L 167.268,1006.01 168.359,1006.81 169.05,1008.47 170.216,1010.23 169.703,1010.78 169.378,1009.94 168.328,1009.9 167.75,1009.18 168.002,1012.35 167.453,1013.55 167.255,1014.13 166.653,1014.64 165.862,1014.64 165.421,1014.5 164.61,1013.38 162.457,1013.32 159.828,1012.42 158.916,1011.8 158.172,1010.84 155.984,1010.96 C 155.984,1010.96 156.838,1009.83 157.087,1009.19 157.338,1008.53 157.478,1007.82 157.452,1007.11 157.436,1006.59 157.311,1006.05 157.076,1005.58 156.814,1005.04 156.359,1004.65 155.974,1004.21 155.307,1003.45 154.532,1002.81 153.887,1002.03 153.453,1001.51 153.025,1000.98 152.699,1000.4 152.303,999.677 152.064,998.882 151.781,998.112 z"
 id="path3039"
 inkscape:connector-curvature="0"
 sodipodi:nodetypes="aaaaaaaaacccccccccccccccccccccaaaaaaa"
 inkscape:transform-center-x="-10.8317"
 inkscape:transform-center-y="19.486" />
<path
 inkscape:transform-center-y="5.39741"
 inkscape:transform-center-x="-1.9354"
 style="fill:#b3b3b3;fill-opacity:1;fill-rule:nonzero;stroke:none"
 d="M 151.108,996.892 151.108,996.892 C 151.108,996.892 152.778,997.938 153.719,997.952 154.179,997.957 154.669,997.773 155.016,997.468 155.424,997.111 155.619,996.551 155.778,996.035 156.065,995.075 156.115,994.048 156.08,993.051 156.025,991.603 155.939,990.086 155.326,988.782 155.173,988.456 154.804,988.279 154.633,987.964 154.245,987.253 154.155,986.412 153.92,985.634 153.753,985.076 153.584,984.518 153.427,983.956 153.312,983.546 153.372,983.042 153.096,982.712 152.588,982.109 151.725,981.778 150.932,981.721 150.382,981.682 149.821,981.912 149.346,982.192 148.936,982.43 148.528,982.748 148.322,983.174 147.251,985.397 147.293,988.094 147.615,990.539 147.738,991.47 148.214,992.327 148.601,993.178 149.034,994.127 149.458,995.098 150.089,995.922 150.374,996.293 151.108,996.892 151.108,996.892 z"
 id="path3041"
 inkscape:connector-curvature="0"
 sodipodi:nodetypes="aaaaaaaaaaaaaaaaaa" />
<path
 inkscape:connector-curvature="0"
 id="path3043"
 d="M 140.713,995.219 141.357,997.283 143.195,999.493 145.079,1000.73 147.515,1000.18 148.342,998.803 149.582,997.103 149.95,994.531 151.466,990.853 152.661,988.281 152.937,983.639 151.788,980.24 149.812,977.389 148.709,976.424 145.171,975.598 141.449,976.149 139.61,977.617 138.186,979.364 137.129,983.776 137.497,985.983 138.829,990.899 140.024,993.93 z"
 style="fill:#000000;fill-opacity:1;fill-rule:nonzero;stroke:none" />
<path
 inkscape:connector-curvature="0"
 id="path3045"
 d="M 144.884,1016.91 146.834,1017.89 147.809,1019.9 147.354,1026.01 146.445,1029.45 144.299,1033.55 141.311,1036.53 137.476,1036.61 134.942,1034.01 136.047,1029.59 136.697,1026.72 138.647,1022.44 140.596,1019.12 141.961,1017.89 143.91,1016.84 z"
 style="fill:#660000;fill-opacity:1;fill-rule:nonzero;stroke:none" />
<path
 sodipodi:nodetypes="caaacacacaacccccc"
 inkscape:connector-curvature="0"
 id="path3047"
 d="M 135.642,1028.34 C 135.642,1028.34 139.538,1028.81 141.491,1028.73 142.957,1028.67 144.428,1028.47 145.845,1028.08 146.183,1027.98 146.52,1027.87 146.82,1027.68 147.307,1027.39 148.119,1026.59 148.119,1026.59 148.119,1026.59 147.43,1030.38 146.625,1032.1 145.968,1033.52 143.96,1035.94 143.96,1035.94 143.96,1035.94 146.651,1039.74 147.729,1041.79 148.515,1043.29 149.679,1046.47 149.679,1046.47 149.679,1046.47 149.988,1047.7 149.614,1048.1 148.774,1048.98 147.182,1048.57 145.975,1048.41 143.026,1048.03 137.591,1045.37 137.591,1045.37 L 131.547,1041.91 130.118,1039.84 130.442,1038.6 133.497,1033.41 z"
 style="fill:#000000;fill-opacity:1;fill-rule:nonzero;stroke:none" />
<path
 inkscape:connector-curvature="0"
 id="path3049"
 d="M 141.246,1003.13 141.246,1003.13 143.131,1003.88 144.105,1004.73 145.34,1007.56 146.737,1012.01 147.548,1017.43 147.322,1018.48 146.282,1020.25 143.845,1021.04 141.961,1020.2 141.44,1018.5 140.661,1010.15 140.206,1004.89 140.206,1003.39 141.018,1003.04 z"
 style="fill:#660000;fill-opacity:1;fill-rule:nonzero;stroke:none" />
<path
 inkscape:connector-curvature="0"
 id="path3051"
 d="M 140.967,996.483 140.737,1000.2 140.553,1001.63 140.14,1003.05 140.001,1004.52 140.094,1005.08 141.564,1006.59 142.989,1007.96 144.551,1008.8 145.516,1009.07 146.206,1008.8 147.171,1007.78 148.595,1005.81 148.871,1004.43 149.009,1002.87 149.055,1002.09 149.284,999.293 149.376,998.183 149.606,997.683 146.803,997.903 145.516,998.183 144.689,997.863 142.575,997.083 z"
 style="fill:#660000;fill-opacity:1;fill-rule:nonzero;stroke:none" />
<path
 inkscape:transform-center-y="4.48577"
 inkscape:transform-center-x="-4.67169"
 inkscape:connector-curvature="0"
 id="path3055"
 d="M 149.716,1004.95 146.944,1004.03 145.811,1004.29 144.615,1005.19 144.814,1006.46 147.4,1009.29 149.026,1011.07 150.283,1012.39 153.987,1014.65 155.89,1015.02 158.174,1014.32 158.946,1013.51 157.971,1011.2 155.588,1009.12 151.31,1005.65 z"
 style="fill:#660000;fill-opacity:1;fill-rule:nonzero;stroke:none" />
<path
 inkscape:transform-center-y="17.3466"
 inkscape:transform-center-x="-9.4861"
 style="fill:#660000;fill-opacity:1;fill-rule:nonzero;stroke:none"
 d="M 155.405,1011.87 157.578,1012.03 159.247,1013.53 161.152,1019.34 161.621,1022.88 161.194,1027.48 159.568,1031.38 156.047,1032.9 152.715,1031.46 152.054,1026.96 151.568,1024.06 151.739,1019.36 152.281,1015.54 153.073,1013.88 154.48,1012.18 z"
 id="path3059"
 inkscape:connector-curvature="0" />
<path
 inkscape:transform-center-x="-10.2075"
 inkscape:transform-center-y="27.941"
 style="fill:#000000;fill-opacity:1;fill-rule:nonzero;stroke:none"
 d="M 151.248,1025.18 C 151.248,1025.18 155.172,1025.2 157.102,1024.9 158.552,1024.66 159.989,1024.29 161.351,1023.74 161.677,1023.61 161.997,1023.46 162.275,1023.24 162.724,1022.88 163.437,1021.99 163.437,1021.99 163.437,1021.99 163.193,1025.84 162.593,1027.65 162.105,1029.13 160.393,1031.77 160.393,1031.77 160.393,1031.77 163.505,1035.23 164.815,1037.14 165.768,1038.54 167.295,1041.56 167.295,1041.56 167.295,1041.56 167.743,1042.75 167.418,1043.18 166.686,1044.17 165.059,1043.95 163.841,1043.93 160.867,1043.88 155.161,1041.87 155.161,1041.87 L 148.757,1039.15 147.096,1037.25 147.276,1035.99 149.705,1030.47 z"
 id="path3061"
 inkscape:connector-curvature="0"
 sodipodi:nodetypes="caaacacacaacccccc" />
<path
 inkscape:connector-curvature="0"
 id="path3063"
 d="M 141.908,974.907 142.919,978.677 146.688,979.136 147.79,977.942 148.434,974.264 157.349,973.897 167.275,971.231 166.724,967.463 164.058,963.971 163.782,958.915 165.528,953.401 166.724,949.358 166.356,945.957 164.701,942.374 160.474,934.009 152.754,930.058 142.46,928.495 132.993,928.311 127.571,932.078 124.998,938.329 125.365,947.245 126.836,951.839 115.715,943.568 112.498,943.384 112.957,945.68 113.876,950.552 122.791,960.662 127.111,961.766 128.674,961.858 125.733,967.003 125.273,969.393 127.846,972.151 134.556,973.988 141.173,974.448 z"
 style="fill:#b3b3b3;fill-opacity:1;fill-rule:nonzero;stroke:none" />
<path
 inkscape:transform-center-y="18.7559"
 inkscape:transform-center-x="12.1987"
 sodipodi:nodetypes="aaaaaaaaacccccccccccccccccccccaaaaaaa"
 inkscape:connector-curvature="0"
 id="path3053"
 d="M 128.302,990.656 C 128.633,990.142 128.913,989.585 129.339,989.147 129.783,988.692 130.259,988.15 130.883,988.031 131.469,987.919 132.133,988.125 132.623,988.468 133.203,988.873 133.658,989.535 133.813,990.228 134.069,991.344 133.47,992.492 133.305,993.627 133.052,995.366 132.58,997.075 132.581,998.824 132.579,999.995 133.122,1001.13 133.061,1002.29 133.016,1003.15 132.805,1004.02 132.437,1004.8 132.114,1005.48 131.061,1006.63 131.061,1006.63 L 131.341,1007.77 131.36,1009.12 130.45,1010.68 129.743,1012.68 129.008,1012.57 129.479,1011.81 128.872,1010.96 129.099,1010.07 126.725,1012.18 125.441,1012.45 124.848,1012.66 124.083,1012.48 123.607,1011.85 123.451,1011.41 123.849,1010.1 122.615,1008.33 121.733,1005.7 121.689,1004.59 121.995,1003.43 120.59,1001.75 C 120.59,1001.75 121.994,1001.76 122.658,1001.57 123.34,1001.36 123.994,1001.05 124.54,1000.61 124.951,1000.27 125.31,999.841 125.539,999.374 125.808,998.847 125.85,998.241 125.964,997.679 126.163,996.694 126.219,995.674 126.442,994.698 126.594,994.042 126.759,993.38 127.032,992.765 127.367,992.015 127.857,991.347 128.302,990.656 z"
 style="fill:#b3b3b3;fill-opacity:1;fill-rule:nonzero;stroke:none" />
<path
 inkscape:transform-center-y="4.28098"
 inkscape:transform-center-x="4.27425"
 sodipodi:nodetypes="aaaaaaaaaaaaaaaaaa"
 inkscape:connector-curvature="0"
 id="path3057"
 d="M 128.874,989.377 128.874,989.377 C 128.874,989.377 129.042,991.346 129.598,992.104 129.871,992.478 130.315,992.753 130.769,992.844 131.299,992.954 131.865,992.772 132.374,992.585 133.31,992.239 134.16,991.659 134.933,991.03 136.054,990.116 137.213,989.132 137.887,987.855 138.052,987.537 137.972,987.138 138.119,986.809 138.454,986.07 139.069,985.493 139.548,984.837 139.893,984.369 140.235,983.899 140.589,983.432 140.849,983.093 141.286,982.839 141.381,982.42 141.558,981.648 141.302,980.758 140.869,980.094 140.568,979.63 140.047,979.323 139.539,979.109 139.102,978.927 138.601,978.797 138.137,978.887 135.718,979.373 133.591,981.031 131.832,982.767 131.165,983.422 130.77,984.314 130.322,985.142 129.826,986.058 129.308,986.982 129.03,987.983 128.907,988.434 128.874,989.377 128.874,989.377 z"
 style="fill:#b3b3b3;fill-opacity:1;fill-rule:nonzero;stroke:none" />
<path
 inkscape:transform-center-y="7.06414"
 inkscape:transform-center-x="-17.4685"
 sodipodi:nodetypes="aaaaaaaaacccccccccccccccccccccaaaaaaa"
 inkscape:connector-curvature="0"
 id="path3065"
 d="M 238.739,995.948 C 238.138,995.849 237.511,995.816 236.942,995.6 236.355,995.373 235.666,995.154 235.306,994.629 234.969,994.136 234.894,993.446 235.012,992.858 235.152,992.167 235.579,991.484 236.15,991.066 237.074,990.386 238.369,990.478 239.467,990.176 241.166,989.718 242.925,989.465 244.538,988.767 245.61,988.305 246.423,987.351 247.523,986.948 248.325,986.645 249.205,986.491 250.061,986.519 250.829,986.543 252.29,987.047 252.29,987.047 L 253.227,986.341 254.46,985.784 256.245,985.997 258.351,985.847 258.578,986.564 257.687,986.435 257.136,987.329 256.225,987.478 259.11,988.817 259.885,989.885 260.292,990.343 260.442,991.117 260.053,991.807 259.713,992.122 258.34,992.278 257.23,994.123 255.154,995.97 254.166,996.46 252.965,996.637 251.994,998.602 C 251.994,998.602 251.429,997.302 250.995,996.771 250.543,996.228 249.993,995.758 249.361,995.432 248.901,995.189 248.37,995.033 247.845,995.007 247.245,994.97 246.682,995.174 246.11,995.293 245.12,995.501 244.182,995.861 243.186,996.04 242.52,996.162 241.848,996.275 241.183,996.274 240.359,996.263 239.549,996.081 238.739,995.948 z"
 style="fill:#b3b3b3;fill-opacity:1;fill-rule:nonzero;stroke:none" />
<path
 sodipodi:nodetypes="aaaaaaaaaaaaaaaaaa"
 inkscape:connector-curvature="0"
 id="path3067"
 d="M 235.501,995.636 235.501,995.636 C 235.501,995.636 237.425,996.064 238.316,995.762 238.751,995.613 239.151,995.275 239.376,994.872 239.642,994.399 239.639,993.806 239.616,993.266 239.565,992.265 239.269,991.281 238.903,990.353 238.367,989.007 237.778,987.606 236.764,986.582 236.511,986.326 236.104,986.283 235.838,986.043 235.235,985.503 234.868,984.74 234.387,984.086 234.043,983.616 233.696,983.146 233.361,982.669 233.115,982.321 233.003,981.826 232.633,981.608 231.952,981.209 231.028,981.186 230.262,981.398 229.731,981.544 229.279,981.949 228.925,982.372 228.618,982.733 228.34,983.169 228.288,983.64 228.022,986.093 228.963,988.62 230.085,990.817 230.512,991.653 231.248,992.301 231.897,992.974 232.622,993.723 233.346,994.497 234.216,995.062 234.609,995.317 235.501,995.636 235.501,995.636 z"
 style="fill:#b3b3b3;fill-opacity:1;fill-rule:nonzero;stroke:none"
 inkscape:transform-center-x="-3.70172"
 inkscape:transform-center-y="3.43878" />
<path
 style="fill:#000000;fill-opacity:1;fill-rule:nonzero;stroke:none"
 d="M 220.713,995.219 221.357,997.283 223.195,999.493 225.079,1000.73 227.515,1000.18 228.342,998.803 229.582,997.103 229.95,994.531 231.466,990.853 232.661,988.281 232.937,983.639 231.788,980.24 229.812,977.389 228.709,976.424 225.171,975.598 221.449,976.149 219.61,977.617 218.186,979.364 217.129,983.776 217.497,985.983 218.829,990.899 220.024,993.93 z"
 id="path3069"
 inkscape:connector-curvature="0" />
<path
 style="fill:#660000;fill-opacity:1;fill-rule:nonzero;stroke:none"
 d="M 224.884,1016.91 226.834,1017.89 227.809,1019.9 227.354,1026.01 226.445,1029.45 224.299,1033.55 221.311,1036.53 217.476,1036.61 214.942,1034.01 216.047,1029.59 216.697,1026.72 218.647,1022.44 220.596,1019.12 221.961,1017.89 223.91,1016.84 z"
 id="path3071"
 inkscape:connector-curvature="0" />
<path
 style="fill:#000000;fill-opacity:1;fill-rule:nonzero;stroke:none"
 d="M 215.642,1028.34 C 215.642,1028.34 219.538,1028.81 221.491,1028.73 222.957,1028.67 224.428,1028.47 225.845,1028.08 226.183,1027.98 226.52,1027.87 226.82,1027.68 227.307,1027.39 228.119,1026.59 228.119,1026.59 228.119,1026.59 227.43,1030.38 226.625,1032.1 225.968,1033.52 223.96,1035.94 223.96,1035.94 223.96,1035.94 226.651,1039.74 227.729,1041.79 228.515,1043.29 229.679,1046.47 229.679,1046.47 229.679,1046.47 229.988,1047.7 229.614,1048.1 228.774,1048.98 227.182,1048.57 225.975,1048.41 223.026,1048.03 217.591,1045.37 217.591,1045.37 L 211.547,1041.91 210.118,1039.84 210.442,1038.6 213.497,1033.41 z"
 id="path3073"
 inkscape:connector-curvature="0"
 sodipodi:nodetypes="caaacacacaacccccc" />
<path
 style="fill:#660000;fill-opacity:1;fill-rule:nonzero;stroke:none"
 d="M 221.246,1003.13 221.246,1003.13 223.131,1003.88 224.105,1004.73 225.34,1007.56 226.737,1012.01 227.548,1017.43 227.322,1018.48 226.282,1020.25 223.845,1021.04 221.961,1020.2 221.44,1018.5 220.661,1010.15 220.206,1004.89 220.206,1003.39 221.018,1003.04 z"
 id="path3075"
 inkscape:connector-curvature="0" />
<path
 style="fill:#660000;fill-opacity:1;fill-rule:nonzero;stroke:none"
 d="M 220.967,996.483 220.737,1000.2 220.553,1001.63 220.14,1003.05 220.001,1004.52 220.094,1005.08 221.564,1006.59 222.989,1007.96 224.551,1008.8 225.516,1009.07 226.206,1008.8 227.171,1007.78 228.595,1005.81 228.871,1004.43 229.009,1002.87 229.055,1002.09 229.284,999.293 229.376,998.183 229.606,997.683 226.803,997.903 225.516,998.183 224.689,997.863 222.575,997.083 z"
 id="path3077"
 inkscape:connector-curvature="0" />
<path
 style="fill:#660000;fill-opacity:1;fill-rule:nonzero;stroke:none"
 d="M 229.716,1004.95 226.944,1004.03 225.811,1004.29 224.615,1005.19 224.814,1006.46 227.4,1009.29 229.026,1011.07 230.283,1012.39 233.987,1014.65 235.89,1015.02 238.174,1014.32 238.946,1013.51 237.971,1011.2 235.588,1009.12 231.31,1005.65 z"
 id="path3079"
 inkscape:connector-curvature="0"
 inkscape:transform-center-x="-4.67169"
 inkscape:transform-center-y="4.48577" />
<path
 inkscape:connector-curvature="0"
 id="path3081"
 d="M 235.405,1011.87 237.578,1012.03 239.247,1013.53 241.152,1019.34 241.621,1022.88 241.194,1027.48 239.568,1031.38 236.047,1032.9 232.715,1031.46 232.054,1026.96 231.568,1024.06 231.739,1019.36 232.281,1015.54 233.073,1013.88 234.48,1012.18 z"
 style="fill:#660000;fill-opacity:1;fill-rule:nonzero;stroke:none"
 inkscape:transform-center-x="-9.4861"
 inkscape:transform-center-y="17.3466" />
<path
 sodipodi:nodetypes="caaacacacaacccccc"
 inkscape:connector-curvature="0"
 id="path3083"
 d="M 231.248,1025.18 C 231.248,1025.18 235.172,1025.2 237.102,1024.9 238.552,1024.66 239.989,1024.29 241.351,1023.74 241.677,1023.61 241.997,1023.46 242.275,1023.24 242.724,1022.88 243.437,1021.99 243.437,1021.99 243.437,1021.99 243.193,1025.84 242.593,1027.65 242.105,1029.13 240.393,1031.77 240.393,1031.77 240.393,1031.77 243.505,1035.23 244.815,1037.14 245.768,1038.54 247.295,1041.56 247.295,1041.56 247.295,1041.56 247.743,1042.75 247.418,1043.18 246.686,1044.17 245.059,1043.95 243.841,1043.93 240.867,1043.88 235.161,1041.87 235.161,1041.87 L 228.757,1039.15 227.096,1037.25 227.276,1035.99 229.705,1030.47 z"
 style="fill:#000000;fill-opacity:1;fill-rule:nonzero;stroke:none"
 inkscape:transform-center-y="27.941"
 inkscape:transform-center-x="-10.2075" />
<path
 style="fill:#b3b3b3;fill-opacity:1;fill-rule:nonzero;stroke:none"
 d="M 221.908,974.907 222.919,978.677 226.688,979.136 227.79,977.942 228.434,974.264 237.349,973.897 247.275,971.231 246.724,967.463 244.058,963.971 243.782,958.915 245.528,953.401 246.724,949.358 246.356,945.957 244.701,942.374 240.474,934.009 232.754,930.058 222.46,928.495 212.993,928.311 207.571,932.078 204.998,938.329 205.365,947.245 206.836,951.839 195.715,943.568 192.498,943.384 192.957,945.68 193.876,950.552 202.791,960.662 207.111,961.766 208.674,961.858 205.733,967.003 205.273,969.393 207.846,972.151 214.556,973.988 221.173,974.448 z"
 id="path3085"
 inkscape:connector-curvature="0" />
<path
 style="fill:#b3b3b3;fill-opacity:1;fill-rule:nonzero;stroke:none"
 d="M 204.332,983.582 C 204.716,983.106 205.054,982.582 205.525,982.192 206.015,981.787 206.545,981.299 207.179,981.247 207.773,981.198 208.412,981.474 208.862,981.867 209.396,982.332 209.778,983.038 209.858,983.744 209.993,984.88 209.276,985.958 208.99,987.069 208.553,988.772 207.902,990.42 207.716,992.159 207.59,993.323 208.008,994.51 207.825,995.657 207.688,996.507 207.386,997.35 206.936,998.086 206.543,998.728 205.374,999.759 205.374,999.759 L 205.53,1000.92 205.405,1002.27 204.334,1003.72 203.416,1005.63 202.699,1005.45 203.248,1004.74 202.735,1003.83 203.056,1002.97 200.471,1004.82 199.166,1004.95 198.553,1005.09 197.812,1004.83 197.405,1004.16 197.297,1003.7 197.832,1002.44 196.794,1000.55 196.198,997.84 196.272,996.731 196.7,995.611 195.482,993.79 C 195.482,993.79 196.877,993.95 197.557,993.832 198.258,993.696 198.941,993.457 199.531,993.078 199.976,992.784 200.379,992.396 200.656,991.955 200.98,991.46 201.086,990.863 201.259,990.316 201.562,989.357 201.727,988.349 202.052,987.402 202.274,986.766 202.507,986.126 202.845,985.544 203.258,984.833 203.816,984.221 204.332,983.582 z"
 id="path3087"
 inkscape:connector-curvature="0"
 sodipodi:nodetypes="aaaaaaaaacccccccccccccccccccccaaaaaaa"
 inkscape:transform-center-x="4.82702"
 inkscape:transform-center-y="9.30977" />
<path
 style="fill:#b3b3b3;fill-opacity:1;fill-rule:nonzero;stroke:none"
 d="M 206.312,981.343 206.312,981.343 C 206.312,981.343 205.247,983.008 205.227,983.948 205.216,984.411 205.401,984.899 205.706,985.247 206.059,985.657 206.619,985.857 207.137,986.019 208.09,986.314 209.118,986.371 210.114,986.342 211.559,986.299 213.078,986.223 214.39,985.62 214.714,985.468 214.894,985.103 215.211,984.931 215.926,984.549 216.765,984.465 217.545,984.236 218.103,984.075 218.66,983.91 219.226,983.755 219.638,983.644 220.14,983.708 220.47,983.434 221.08,982.929 221.419,982.067 221.479,981.276 221.523,980.725 221.296,980.164 221.023,979.685 220.787,979.275 220.469,978.867 220.046,978.656 217.83,977.57 215.134,977.591 212.681,977.898 211.754,978.012 210.897,978.479 210.038,978.864 209.087,979.289 208.114,979.707 207.284,980.332 206.912,980.615 206.312,981.343 206.312,981.343 z"
 id="path3089"
 inkscape:connector-curvature="0"
 sodipodi:nodetypes="aaaaaaaaaaaaaaaaaa"
 inkscape:transform-center-x="6.0735"
 inkscape:transform-center-y="0.447145" />
<path
 style="fill:#b3b3b3;fill-opacity:1;fill-rule:nonzero;stroke:none"
 d="M 318.58,997.111 C 317.98,997.219 317.378,997.397 316.769,997.383 316.14,997.366 315.417,997.39 314.903,997.015 314.42,996.662 314.119,996.037 314.035,995.444 313.935,994.746 314.11,993.96 314.507,993.375 315.151,992.425 316.402,992.079 317.337,991.427 318.785,990.428 320.358,989.601 321.645,988.405 322.501,987.611 322.949,986.44 323.85,985.693 324.505,985.14 325.283,984.7 326.1,984.44 326.831,984.207 328.377,984.194 328.377,984.194 L 329.024,983.215 330.001,982.278 331.754,981.882 333.688,981.037 334.142,981.637 333.258,981.813 333.039,982.839 332.23,983.284 335.397,983.583 336.484,984.331 337.02,984.625 337.42,985.306 337.284,986.086 337.069,986.496 335.827,987.102 335.398,989.211 334.061,991.65 333.293,992.442 332.216,993.003 331.96,995.184 C 331.96,995.184 330.993,994.148 330.407,993.793 329.798,993.429 329.126,993.175 328.417,993.073 327.903,993 327.351,993.03 326.847,993.182 326.269,993.346 325.807,993.728 325.308,994.031 324.444,994.557 323.68,995.209 322.801,995.711 322.215,996.049 321.619,996.38 320.992,996.602 320.211,996.867 319.387,996.965 318.58,997.111 z"
 id="path3022"
 inkscape:connector-curvature="0"
 sodipodi:nodetypes="aaaaaaaaacccccccccccccccccccccaaaaaaa"
 inkscape:transform-center-x="-18.343"
 inkscape:transform-center-y="-1.89245" />
<path
 inkscape:transform-center-y="0.644934"
 inkscape:transform-center-x="-4.33785"
 style="fill:#b3b3b3;fill-opacity:1;fill-rule:nonzero;stroke:none"
 d="M 315.423,997.899 315.423,997.899 C 315.423,997.899 317.38,997.659 318.119,997.076 318.478,996.791 318.743,996.339 318.82,995.884 318.912,995.349 318.712,994.791 318.51,994.29 318.127,993.363 317.519,992.535 316.864,991.782 315.909,990.693 314.886,989.569 313.588,988.943 313.264,988.786 312.866,988.882 312.535,988.745 311.786,988.438 311.185,987.841 310.513,987.385 310.032,987.057 309.548,986.73 309.073,986.392 308.725,986.147 308.453,985.718 308.032,985.636 307.257,985.487 306.379,985.775 305.727,986.231 305.275,986.546 304.985,987.078 304.792,987.595 304.624,988.038 304.508,988.541 304.616,989.003 305.185,991.404 306.916,993.472 308.708,995.166 309.39,995.812 310.3,996.177 311.137,996.594 312.071,997.058 313.011,997.546 314.02,997.787 314.476,997.896 315.423,997.899 315.423,997.899 z"
 id="path3024"
 inkscape:connector-curvature="0"
 sodipodi:nodetypes="aaaaaaaaaaaaaaaaaa" />
<path
 inkscape:connector-curvature="0"
 id="path3026"
 d="M 296.278,997.58 296.47,999.731 297.798,1002.28 299.378,1003.89 301.875,1003.87 302.975,1002.7 304.547,1001.3 305.451,998.864 307.712,995.59 309.424,993.329 310.677,988.851 310.274,985.286 308.947,982.081 308.073,980.904 304.79,979.348 301.036,979.098 298.928,980.143 297.166,981.549 295.199,985.637 295.091,987.872 295.352,992.959 295.877,996.174 z"
 style="fill:#000000;fill-opacity:1;fill-rule:nonzero;stroke:none"
 inkscape:transform-center-x="-4.40513"
 inkscape:transform-center-y="-14.1582" />
<path
 inkscape:connector-curvature="0"
 id="path3028"
 d="M 313.02,1016.65 314.216,1018.48 314.048,1020.7 310.583,1025.76 308.059,1028.28 304.147,1030.74 300.063,1031.81 296.705,1029.96 295.826,1026.43 299.002,1023.16 301.011,1021.01 304.854,1018.29 308.198,1016.4 310.006,1016.02 312.215,1016.1 z"
 style="fill:#660000;fill-opacity:1;fill-rule:nonzero;stroke:none"
 inkscape:transform-center-x="6.4142"
 inkscape:transform-center-y="6.06982" />
<path
 sodipodi:nodetypes="caaacacacaacccccc"
 inkscape:connector-curvature="0"
 id="path3030"
 d="M 299.28,1021.88 C 299.28,1021.88 302.416,1024.25 304.14,1025.17 305.436,1025.85 306.809,1026.41 308.232,1026.79 308.581,1026.87 308.927,1026.94 309.271,1026.94 309.843,1026.93 310.948,1026.64 310.948,1026.64 310.948,1026.64 308.446,1029.58 306.883,1030.66 305.607,1031.55 302.654,1032.63 302.654,1032.63 302.654,1032.63 303.067,1037.27 302.968,1039.58 302.889,1041.28 302.298,1044.61 302.298,1044.61 302.298,1044.61 301.947,1045.83 301.422,1045.99 300.258,1046.32 299.09,1045.17 298.121,1044.43 295.759,1042.61 292.412,1037.57 292.412,1037.57 L 288.92,1031.55 288.729,1029.04 289.624,1028.14 294.873,1025.19 z"
 style="fill:#000000;fill-opacity:1;fill-rule:nonzero;stroke:none"
 inkscape:transform-center-x="11.5967"
 inkscape:transform-center-y="16.1189" />
<path
 inkscape:connector-curvature="0"
 id="path3032"
 d="M 298.718,1008.35 298.718,1008.35 300.616,1007.62 301.899,1007.57 304.734,1008.81 308.784,1011.12 313.059,1014.55 313.609,1015.47 314.047,1017.47 312.803,1019.72 310.849,1020.38 309.314,1019.49 303.063,1013.89 299.149,1010.34 298.132,1009.24 298.491,1008.43 z"
 style="fill:#660000;fill-opacity:1;fill-rule:nonzero;stroke:none"
 inkscape:transform-center-x="-3.79978"
 inkscape:transform-center-y="4.51322" />
<path
 inkscape:connector-curvature="0"
 id="path3034"
 d="M 296.954,1000.86 297.984,1004.44 298.291,1005.85 298.379,1007.32 298.743,1008.76 299.019,1009.26 300.907,1010.18 302.709,1010.99 304.466,1011.26 305.462,1011.19 306.026,1010.71 306.588,1009.42 307.271,1007.09 307.068,1005.69 306.672,1004.18 306.454,1003.43 305.732,1000.72 305.446,999.641 305.494,999.092 302.928,1000.24 301.81,1000.94 300.924,1000.91 298.67,1000.89 z"
 style="fill:#660000;fill-opacity:1;fill-rule:nonzero;stroke:none"
 inkscape:transform-center-x="-1.15649"
 inkscape:transform-center-y="3.52498" />
<path
 inkscape:transform-center-y="-3.647"
 inkscape:transform-center-x="-5.33981"
 inkscape:connector-curvature="0"
 id="path3036"
 d="M 305.609,1004.35 303.765,1006.61 303.61,1007.77 304.031,1009.21 305.282,1009.46 308.854,1008.05 311.092,1007.16 312.771,1006.45 316.188,1003.78 317.217,1002.13 317.365,999.751 316.881,998.742 314.373,998.839 311.587,1000.33 306.831,1003.11 z"
 style="fill:#660000;fill-opacity:1;fill-rule:nonzero;stroke:none" />
<path
 inkscape:transform-center-y="7.56807"
 inkscape:transform-center-x="-3.70996"
 style="fill:#660000;fill-opacity:1;fill-rule:nonzero;stroke:none"
 d="M 314.584,999.834 316.604,999.036 318.763,999.652 323.009,1004.06 324.977,1007.03 326.596,1011.37 326.832,1015.58 324.325,1018.48 320.702,1018.64 318.143,1014.88 316.448,1012.49 314.55,1008.18 313.374,1004.5 313.366,1002.66 313.882,1000.52 z"
 id="path3038"
 inkscape:connector-curvature="0" />
<path
 inkscape:transform-center-x="-11.4551"
 inkscape:transform-center-y="15.1"
 style="fill:#000000;fill-opacity:1;fill-rule:nonzero;stroke:none"
 d="M 316.642,1013.62 C 316.642,1013.62 320.179,1011.93 321.792,1010.83 322.986,1009.98 324.122,1009.01 325.106,1007.92 325.343,1007.68 325.569,1007.4 325.719,1007.07 325.965,1006.55 326.224,1005.45 326.224,1005.45 326.224,1005.45 327.682,1009.02 327.931,1010.9 328.137,1012.45 327.75,1015.57 327.75,1015.57 327.75,1015.57 332.055,1017.33 334.06,1018.48 335.53,1019.32 338.225,1021.38 338.225,1021.38 338.225,1021.38 339.148,1022.25 339.037,1022.78 338.813,1023.99 337.251,1024.5 336.147,1025.02 333.451,1026.28 327.437,1026.94 327.437,1026.94 L 320.49,1027.29 318.17,1026.3 317.78,1025.09 317.562,1019.07 z"
 id="path3040"
 inkscape:connector-curvature="0"
 sodipodi:nodetypes="caaacacacaacccccc" />
<path
 inkscape:connector-curvature="0"
 id="path3042"
 d="M 300.685,978.846 302.103,982.482 305.899,982.526 306.864,981.218 307.102,977.492 315.923,976.152 325.498,972.415 324.538,968.731 321.506,965.552 320.678,960.556 321.81,954.884 322.556,950.735 321.819,947.394 319.781,944.014 314.665,936.161 306.559,933.079 296.155,932.652 286.725,933.505 281.748,937.843 279.875,944.338 281.215,953.16 283.18,957.566 271.221,950.561 268.003,950.73 268.71,952.962 270.156,957.704 280.125,966.778 284.539,967.403 286.103,967.323 283.742,972.759 283.548,975.185 286.406,977.645 293.277,978.736 299.904,978.47 z"
 style="fill:#b3b3b3;fill-opacity:1;fill-rule:nonzero;stroke:none"
 inkscape:transform-center-x="7.11741"
 inkscape:transform-center-y="-24.083" />
<path
 inkscape:transform-center-y="-13.0842"
 inkscape:transform-center-x="18.6247"
 sodipodi:nodetypes="aaaaaaaaacccccccccccccccccccccaaaaaaa"
 inkscape:connector-curvature="0"
 id="path3044"
 d="M 282.733,982.738 C 283.209,982.354 283.65,981.913 284.193,981.632 284.758,981.34 285.379,980.975 286.01,981.058 286.601,981.136 287.167,981.541 287.523,982.021 287.947,982.588 288.171,983.359 288.099,984.066 287.991,985.205 287.062,986.107 286.547,987.132 285.759,988.704 284.774,990.176 284.224,991.837 283.854,992.948 284.011,994.196 283.589,995.278 283.276,996.08 282.802,996.84 282.206,997.464 281.686,998.008 280.325,998.768 280.325,998.768 L 280.231,999.941 279.823,1001.23 278.47,1002.42 277.168,1004.09 276.505,1003.77 277.192,1003.19 276.884,1002.19 277.379,1001.42 274.461,1002.68 273.158,1002.53 272.53,1002.54 271.86,1002.12 271.605,1001.38 271.596,1000.91 272.386,999.791 271.772,997.724 271.764,994.949 272.071,993.881 272.727,992.877 271.922,990.84 C 271.922,990.84 273.251,991.292 273.941,991.32 274.655,991.336 275.373,991.247 276.03,991.001 276.527,990.808 277.003,990.514 277.367,990.142 277.789,989.727 278.019,989.166 278.304,988.668 278.803,987.795 279.177,986.845 279.696,985.988 280.047,985.413 280.411,984.837 280.864,984.34 281.418,983.733 282.093,983.253 282.733,982.738 z"
 style="fill:#b3b3b3;fill-opacity:1;fill-rule:nonzero;stroke:none" />
<path
 inkscape:transform-center-y="-22.6834"
 inkscape:transform-center-x="6.70878"
 sodipodi:nodetypes="aaaaaaaaaaaaaaaaaa"
 inkscape:connector-curvature="0"
 id="path3046"
 d="M 285.142,980.969 285.142,980.969 C 285.142,980.969 283.749,982.37 283.53,983.285 283.421,983.735 283.499,984.251 283.723,984.656 283.981,985.131 284.486,985.445 284.958,985.713 285.827,986.203 286.82,986.477 287.799,986.659 289.221,986.923 290.721,987.171 292.131,986.859 292.48,986.779 292.733,986.461 293.079,986.36 293.859,986.138 294.697,986.234 295.508,986.175 296.087,986.136 296.666,986.092 297.252,986.061 297.679,986.04 298.156,986.208 298.536,986.011 299.239,985.646 299.753,984.876 299.979,984.115 300.139,983.586 300.036,982.99 299.871,982.464 299.727,982.013 299.502,981.547 299.134,981.251 297.198,979.721 294.559,979.17 292.096,978.951 291.166,978.866 290.23,979.141 289.309,979.335 288.289,979.549 287.25,979.751 286.306,980.186 285.883,980.384 285.142,980.969 285.142,980.969 z"
 style="fill:#b3b3b3;fill-opacity:1;fill-rule:nonzero;stroke:none" />
<path
 style="fill:#999999;fill-opacity:1;fill-rule:nonzero;stroke:none"
 d="M 91.7967,1124.81 C 91.2623,1124.53 90.6867,1124.3 90.2043,1123.93 89.7123,1123.53 89.1207,1123.11 88.953,1122.5 88.7647,1121.92 88.9185,1121.25 89.2091,1120.72 89.5617,1120.11 90.1823,1119.59 90.847,1119.37 91.9347,1119 93.135,1119.49 94.2742,1119.54 96.0328,1119.63 97.777,1119.93 99.5408,1119.76 100.693,1119.65 101.767,1118.99 102.938,1118.95 103.789,1118.9 104.677,1119.03 105.471,1119.32 106.206,1119.58 107.437,1120.51 107.437,1120.51 L 108.535,1120.12 109.898,1119.97 111.523,1120.72 113.573,1121.23 113.578,1121.98 112.756,1121.59 111.962,1122.27 111.045,1122.12 113.381,1124.29 113.786,1125.55 114.045,1126.11 113.949,1126.89 113.358,1127.42 112.944,1127.62 111.599,1127.34 109.96,1128.76 107.417,1129.88 106.323,1130.04 105.127,1129.84 103.615,1131.41 C 103.615,1131.41 103.464,1130 103.217,1129.36 102.95,1128.71 102.562,1128.09 102.072,1127.58 101.71,1127.21 101.246,1126.9 100.77,1126.71 100.214,1126.5 99.6037,1126.51 99.0249,1126.45 98.0169,1126.34 97.0155,1126.4 96.018,1126.27 95.3396,1126.18 94.6715,1126.08 94.0257,1125.87 93.2508,1125.61 92.5292,1125.19 91.7967,1124.81 z"
 id="path3048"
 inkscape:connector-curvature="0"
 sodipodi:nodetypes="aaaaaaaaacccccccccccccccccccccaaaaaaa"
 inkscape:transform-center-x="-20.3623"
 inkscape:transform-center-y="9.0887" />
<path
 inkscape:transform-center-y="2.39578"
 inkscape:transform-center-x="-5.31434"
 style="fill:#999999;fill-opacity:1;fill-rule:nonzero;stroke:none"
 d="M 90.4954,1124.37 90.4954,1124.37 C 90.4954,1124.37 92.4232,1124.01 93.1261,1123.38 93.4623,1123.07 93.7019,1122.6 93.7412,1122.14 93.8022,1121.6 93.5732,1121.06 93.343,1120.57 92.9012,1119.67 92.2271,1118.88 91.5413,1118.18 90.512,1117.15 89.4232,1116.09 88.094,1115.55 87.7567,1115.41 87.3642,1115.53 87.0264,1115.42 86.2616,1115.15 85.6227,1114.6 84.931,1114.19 84.417,1113.89 83.9128,1113.59 83.4289,1113.29 83.0535,1113.06 82.7618,1112.65 82.3328,1112.59 81.5546,1112.5 80.6975,1112.84 80.0773,1113.33 79.6402,1113.68 79.379,1114.23 79.2382,1114.76 79.0791,1115.21 78.9986,1115.72 79.1394,1116.17 79.8617,1118.53 81.7124,1120.49 83.6108,1122.06 84.3287,1122.67 85.2626,1122.98 86.1254,1123.34 87.0874,1123.74 88.0489,1124.17 89.0755,1124.35 89.5441,1124.42 90.4954,1124.37 90.4954,1124.37 z"
 id="path3050"
 inkscape:connector-curvature="0"
 sodipodi:nodetypes="aaaaaaaaaaaaaaaaaa" />
<path
 inkscape:connector-curvature="0"
 id="path3052"
 d="M 70.4987,1106.77 68.426,1107.37 66.1792,1109.16 64.9012,1111.02 65.4016,1113.46 66.7645,1114.32 68.439,1115.59 71.001,1116.01 74.6494,1117.61 77.1947,1118.85 81.8281,1119.22 85.2507,1118.14 88.1403,1116.22 89.1325,1115.14 90.0241,1111.62 89.5498,1107.89 88.1174,1106.02 86.4067,1104.56 82.0191,1103.41 79.8021,1103.74 74.856,1104.97 71.8024,1106.1 z"
 style="fill:#000000;fill-opacity:1;fill-rule:nonzero;stroke:none" />
<path
 inkscape:connector-curvature="0"
 id="path3054"
 d="M 66.539,1118.47 68.6133,1119.12 69.9095,1120.95 70.4579,1127.05 70.1218,1130.59 68.6734,1134.99 66.2103,1138.41 62.4457,1139.12 59.5216,1136.97 59.8851,1132.43 60.0593,1129.49 61.2873,1124.95 62.6618,1121.35 63.8078,1119.92 65.5591,1118.56 z"
 style="fill:#660000;fill-opacity:1;fill-rule:nonzero;stroke:none"
 inkscape:transform-center-x="-4.30296"
 inkscape:transform-center-y="22.1492" />
<path
 sodipodi:nodetypes="caaacacacaacccccc"
 inkscape:connector-curvature="0"
 id="path3056"
 d="M 59.2809,1131.26 C 59.2809,1131.26 63.2056,1131.09 65.1152,1130.69 66.5547,1130.39 67.9686,1129.95 69.3081,1129.34 69.6252,1129.18 69.9406,1129.02 70.2018,1128.78 70.6321,1128.42 71.3044,1127.5 71.3044,1127.5 71.3044,1127.5 71.2496,1131.35 70.7361,1133.17 70.3158,1134.68 68.7269,1137.4 68.7269,1137.4 68.7269,1137.4 72.0092,1140.71 73.4016,1142.56 74.4266,1143.91 76.0953,1146.85 76.0953,1146.85 76.0953,1146.85 76.5972,1148.02 76.2956,1148.47 75.6084,1149.48 73.9741,1149.33 72.7607,1149.37 69.7899,1149.48 63.9932,1147.74 63.9932,1147.74 L 57.4577,1145.32 55.7163,1143.51 55.8342,1142.23 58.0005,1136.61 z"
 style="fill:#000000;fill-opacity:1;fill-rule:nonzero;stroke:none"
 inkscape:transform-center-x="-5.36739"
 inkscape:transform-center-y="31.7917" />
<path
 inkscape:connector-curvature="0"
 id="path3058"
 d="M 60.696,1105.47 60.696,1105.47 62.6788,1105.9 63.7721,1106.59 65.4556,1109.17 67.5644,1113.34 69.2493,1118.55 69.1952,1119.62 68.4541,1121.54 66.1815,1122.72 64.192,1122.2 63.3967,1120.6 61.2632,1112.49 59.9531,1107.38 59.7075,1105.9 60.4525,1105.42 z"
 style="fill:#660000;fill-opacity:1;fill-rule:nonzero;stroke:none"
 inkscape:transform-center-x="-3.7916"
 inkscape:transform-center-y="7.42415" />
<path
 inkscape:connector-curvature="0"
 id="path3060"
 d="M 69.2338,1106.99 65.5192,1106.69 64.0932,1106.48 62.6819,1106.03 61.215,1105.86 60.6533,1105.95 59.1137,1107.39 57.7151,1108.78 56.8435,1110.33 56.554,1111.29 56.81,1111.98 57.8102,1112.97 59.7508,1114.43 61.1249,1114.73 62.6818,1114.9 63.4607,1114.97 66.2555,1115.25 67.3634,1115.37 67.8586,1115.61 67.6956,1112.8 67.4418,1111.51 67.7785,1110.69 68.6012,1108.59 z"
 style="fill:#660000;fill-opacity:1;fill-rule:nonzero;stroke:none" />
<path
 inkscape:transform-center-y="4.57956"
 inkscape:transform-center-x="4.57231"
 inkscape:connector-curvature="0"
 id="path3064"
 d="M 60.5879,1115.57 61.564,1112.82 61.327,1111.68 60.4515,1110.46 59.1777,1110.64 56.2958,1113.16 54.4832,1114.75 53.1379,1115.98 50.8032,1119.64 50.3946,1121.54 51.0481,1123.83 51.8423,1124.62 54.1716,1123.69 56.2995,1121.35 59.8557,1117.15 z"
 style="fill:#660000;fill-opacity:1;fill-rule:nonzero;stroke:none" />
<path
 inkscape:transform-center-y="9.10981"
 inkscape:transform-center-x="17.518"
 style="fill:#660000;fill-opacity:1;fill-rule:nonzero;stroke:none"
 d="M 53.5538,1121.12 53.3497,1123.29 51.8162,1124.92 45.9687,1126.71 42.4199,1127.11 37.8295,1126.59 33.9633,1124.88 32.5151,1121.33 34.0225,1118.03 38.535,1117.46 41.4442,1117.03 46.1398,1117.3 49.948,1117.92 51.5916,1118.74 53.2627,1120.19 z"
 id="path3068"
 inkscape:connector-curvature="0" />
<path
 inkscape:transform-center-x="28.2849"
 inkscape:transform-center-y="9.49509"
 style="fill:#000000;fill-opacity:1;fill-rule:nonzero;stroke:none"
 d="M 40.331,1116.69 C 40.331,1116.69 40.2313,1120.61 40.4921,1122.55 40.7026,1124 41.0433,1125.45 41.5655,1126.82 41.6889,1127.15 41.8324,1127.47 42.0467,1127.75 42.3975,1128.21 43.2728,1128.94 43.2728,1128.94 43.2728,1128.94 39.4286,1128.62 37.6311,1127.98 36.1614,1127.46 33.5567,1125.7 33.5567,1125.7 33.5567,1125.7 30.0342,1128.74 28.098,1130.01 26.6789,1130.94 23.6285,1132.4 23.6285,1132.4 23.6285,1132.4 22.4297,1132.83 22.0064,1132.49 21.0314,1131.74 21.2844,1130.12 21.3292,1128.9 21.4395,1125.93 23.565,1120.26 23.565,1120.26 L 26.4144,1113.92 28.3477,1112.29 29.6038,1112.5 35.0734,1115.04 z"
 id="path3070"
 inkscape:connector-curvature="0"
 sodipodi:nodetypes="caaacacacaacccccc" />
<path
 inkscape:connector-curvature="0"
 id="path3072"
 d="M 87.6755,1106.53 85.2099,1109.55 87.0473,1112.88 88.6532,1113.07 92.017,1111.44 97.5173,1118.47 105.484,1124.97 108.219,1122.31 109.496,1118.11 113.443,1114.93 118.931,1113.13 122.91,1111.74 125.454,1109.45 127.401,1106.01 131.714,1097.7 130.415,1089.13 125.675,1079.86 120.291,1072.07 114.062,1069.87 107.487,1071.43 100.466,1076.93 97.5937,1080.82 97.8088,1066.96 96.0848,1064.24 94.4857,1065.95 91.0699,1069.54 88.0743,1082.69 89.7073,1086.84 90.5389,1088.17 84.646,1088.78 82.4366,1089.8 81.7019,1093.5 84.128,1100.02 87.6227,1105.66 z"
 style="fill:#b3b3b3;fill-opacity:1;fill-rule:nonzero;stroke:none"
 inkscape:transform-center-x="-20.244"
 inkscape:transform-center-y="-17.494" />
<path
 inkscape:transform-center-y="-3.35737"
 inkscape:transform-center-x="-21.7908"
 sodipodi:nodetypes="aaaaaaaaacccccccccccccccccccccaaaaaaa"
 inkscape:connector-curvature="0"
 id="path3062"
 d="M 98.0505,1109.42 C 97.4296,1109.46 96.8274,1109.56 96.2091,1109.47 95.5808,1109.38 94.872,1109.31 94.4007,1108.88 93.9689,1108.47 93.7322,1107.81 93.7243,1107.22 93.7187,1106.51 93.9841,1105.75 94.4651,1105.22 95.2027,1104.35 96.4869,1104.16 97.5079,1103.63 99.0549,1102.81 100.718,1102.18 102.129,1101.15 103.083,1100.47 103.686,1099.36 104.659,1098.73 105.369,1098.26 106.196,1097.91 107.039,1097.75 107.792,1097.61 109.329,1097.79 109.329,1097.79 L 110.087,1096.89 111.184,1096.08 112.958,1095.9 115,1095.3 115.347,1095.95 114.466,1096.02 114.125,1097.01 113.278,1097.35 116.375,1098.03 117.347,1098.91 117.88,1099.26 118.176,1099.99 117.94,1100.75 117.692,1101.13 116.383,1101.58 115.681,1103.62 114.075,1105.88 113.201,1106.57 112.092,1107 111.559,1109.13 C 111.559,1109.13 110.742,1107.98 110.19,1107.56 109.619,1107.13 108.986,1106.79 108.31,1106.6 107.792,1106.47 107.233,1106.43 106.711,1106.52 106.139,1106.62 105.622,1106.94 105.097,1107.18 104.189,1107.59 103.327,1108.15 102.399,1108.55 101.794,1108.81 101.158,1109.06 100.485,1109.21 99.6917,1109.38 98.8515,1109.38 98.0505,1109.42 z"
 style="fill:#999999;fill-opacity:1;fill-rule:nonzero;stroke:none" />
<path
 inkscape:transform-center-y="1.50072"
 inkscape:transform-center-x="-6.09665"
 sodipodi:nodetypes="aaaaaaaaaaaaaaaaaa"
 inkscape:connector-curvature="0"
 id="path3066"
 d="M 96.6642,1109.71 96.6642,1109.71 C 96.6642,1109.71 98.1708,1108.42 98.4491,1107.52 98.5881,1107.08 98.5587,1106.56 98.3571,1106.14 98.1371,1105.64 97.6541,1105.3 97.2001,1104.99 96.3712,1104.44 95.408,1104.1 94.443,1103.84 93.0602,1103.47 91.5671,1103.11 90.1427,1103.32 89.7815,1103.37 89.5154,1103.67 89.1438,1103.75 88.3703,1103.91 87.5333,1103.75 86.7232,1103.75 86.1431,1103.75 85.553,1103.75 84.9631,1103.74 84.5533,1103.73 84.0873,1103.52 83.6838,1103.69 82.9573,1104 82.3823,1104.73 82.1173,1105.48 81.9168,1105.99 81.9645,1106.59 82.0936,1107.13 82.2143,1107.59 82.4046,1108.07 82.7381,1108.4 84.5646,1110.06 87.15,1110.81 89.5824,1111.21 90.5195,1111.36 91.4638,1111.16 92.3966,1111.03 93.4296,1110.89 94.4823,1110.77 95.4599,1110.4 95.8934,1110.24 96.6642,1109.71 96.6642,1109.71 z"
 style="fill:#999999;fill-opacity:1;fill-rule:nonzero;stroke:none" />
</g>
</svg>
